<?xml version="1.0" encoding="utf-8"?>
<!-- Generator: Adobe Illustrator 24.0.3, SVG Export Plug-In . SVG Version: 6.00 Build 0)  -->
<svg version="1.1" id="Capa_1" xmlns="http://www.w3.org/2000/svg" xmlns:xlink="http://www.w3.org/1999/xlink" x="0px" y="0px"
	 viewBox="0 0 51.9 56.3" style="enable-background:new 0 0 51.9 56.3;" xml:space="preserve">
<style type="text/css">
	.st0{fill:#FFFFFF;}
	.st1{fill:none;}
	.st2{fill:#EF3829;}
</style>
<g>
	<path class="st0" d="M39.4,15.4v0.5h3.5c1.9,0,3.5,1.6,3.5,3.5v21c0,1.9-1.6,3.5-3.5,3.5H9.1c-1.9,0-3.5-1.6-3.5-3.5v-21
		c0-1.9,1.6-3.5,3.5-3.5h3v-0.5"/>
	<g>
		<g>
			<path class="st1" d="M38.5,7.6c0-1-0.8-1.7-1.8-1.7H18.3l-4.7,5c-0.3,0.4-0.5,0.8-0.5,1.3v2.7h25.4V7.6z"/>
			<path d="M42.9,14.9h-3.5v0.5h3.5c2.2,0,4,1.8,4,4v21c0,2.2-1.8,4-4,4H9.1c-2.2,0-4-1.8-4-4v-21c0-2.2,1.8-4,4-4h3v-0.5h-3
				c-2.5,0-4.5,2-4.5,4.5v21c0,2.5,2,4.5,4.5,4.5h33.8c2.5,0,4.5-2,4.5-4.5v-21C47.4,17,45.3,14.9,42.9,14.9z"/>
			<rect x="13.1" y="14.9" width="25.4" height="0.5"/>
			<rect x="13.1" y="15.4" width="25.4" height="0.5"/>
			<path d="M42.9,15.9c1.9,0,3.5,1.6,3.5,3.5v21c0,1.9-1.6,3.5-3.5,3.5H9.1c-1.9,0-3.5-1.6-3.5-3.5v-21c0-1.9,1.6-3.5,3.5-3.5h3
				v-0.5h-3c-2.2,0-4,1.8-4,4v21c0,2.2,1.8,4,4,4h33.8c2.2,0,4-1.8,4-4v-21c0-2.2-1.8-4-4-4h-3.5v0.5H42.9z"/>
			<path d="M13.1,12.2c0-0.5,0.2-0.9,0.5-1.3l4.7-5h18.4c1,0,1.8,0.7,1.8,1.7v7.3h0.9V7.6c0-1.5-1.2-2.7-2.7-2.7H17.8l-4.9,5.3
				c-0.5,0.5-0.8,1.3-0.8,2v2.7h1V12.2z"/>
			<rect x="38.5" y="14.9" width="0.9" height="0.5"/>
			<rect x="12.1" y="14.9" width="1" height="0.5"/>
			<rect x="12.1" y="15.4" width="1" height="0.5"/>
			<rect x="38.5" y="15.4" width="0.9" height="0.5"/>
			<path class="st0" d="M39.4,37.7h-0.9v10.9c0,0.9-0.8,1.7-1.7,1.7h-22c-0.9,0-1.7-0.8-1.7-1.7V37.7h-1"/>
			<path d="M41,37.1H10.8c-0.3,0-0.5,0.2-0.5,0.5s0.2,0.5,0.5,0.5h1.3v10.6c0,1.5,1.2,2.7,2.7,2.7h21.9c1.5,0,2.7-1.2,2.7-2.7V38.1
				H41c0.3,0,0.5-0.2,0.5-0.5S41.3,37.1,41,37.1z M38.5,48.7c0,0.9-0.8,1.7-1.7,1.7h-22c-0.9,0-1.7-0.8-1.7-1.7V38.1h25.4V48.7z"/>
			<g>
				<path d="M36.9,41.3H15.3c-0.2,0-0.3-0.2-0.3-0.5s0.1-0.5,0.3-0.5h21.5c0.2,0,0.3,0.2,0.3,0.5S37,41.3,36.9,41.3z"/>
			</g>
			<g>
				<path d="M36.9,43.6H15.3c-0.2,0-0.3-0.2-0.3-0.5s0.1-0.5,0.3-0.5h21.5c0.2,0,0.3,0.2,0.3,0.5S37,43.6,36.9,43.6z"/>
			</g>
			<g>
				<path d="M36.9,45.8H15.3c-0.2,0-0.3-0.2-0.3-0.5s0.1-0.5,0.3-0.5h21.5c0.2,0,0.3,0.2,0.3,0.5S37,45.8,36.9,45.8z"/>
			</g>
		</g>
		<g id="Group_830_1_">
			<g id="Path_488_1_">
				<path id="Path_5803_1_" class="st2" d="M18.3,5.9v4.3c0,0.6-0.4,1-1,1h-4L18.3,5.9z"/>
			</g>
		</g>
		<circle cx="40.6" cy="19.6" r="0.7"/>
		<circle class="st2" cx="38.2" cy="19.6" r="0.7"/>
	</g>
</g>
</svg>
